<svg width="17" height="17" viewBox="0 0 17 17" fill="none" xmlns="http://www.w3.org/2000/svg">
<path d="M15.3804 7.4233L13.7984 6.95108C13.689 6.5692 13.5386 6.20029 13.3498 5.8508L14.1243 4.40108C14.1533 4.34636 14.164 4.28373 14.1546 4.22248C14.1452 4.16123 14.1164 4.10463 14.0723 4.06108L12.9437 2.92775C12.9001 2.88368 12.8436 2.85482 12.7823 2.84546C12.7211 2.8361 12.6584 2.84674 12.6037 2.8758L11.1634 3.64553C10.8105 3.4475 10.4367 3.28913 10.049 3.1733L9.57675 1.61025C9.55678 1.55264 9.51904 1.50286 9.46898 1.46807C9.41891 1.43328 9.3591 1.41527 9.29814 1.41664H7.70203C7.64071 1.41692 7.58108 1.43677 7.53182 1.47329C7.48256 1.50981 7.44624 1.5611 7.42814 1.61969L6.95592 3.17803C6.56493 3.29324 6.18798 3.45162 5.83203 3.65025L4.41537 2.88525C4.36064 2.85619 4.29801 2.84555 4.23676 2.85491C4.17551 2.86426 4.11891 2.89312 4.07537 2.93719L2.92787 4.05636C2.88379 4.09991 2.85494 4.15651 2.84558 4.21776C2.83622 4.279 2.84686 4.34164 2.87592 4.39636L3.64092 5.81303C3.44261 6.16747 3.28424 6.54282 3.1687 6.93219L1.60564 7.40442C1.54705 7.42251 1.49576 7.45883 1.45924 7.50809C1.42272 7.55735 1.40287 7.61698 1.40259 7.6783V9.27441C1.40287 9.33574 1.42272 9.39537 1.45924 9.44463C1.49576 9.49389 1.54705 9.53021 1.60564 9.5483L3.17814 10.0205C3.29495 10.4034 3.4533 10.7724 3.65037 11.1208L2.87592 12.6036C2.84686 12.6583 2.83622 12.7209 2.84558 12.7822C2.85494 12.8434 2.88379 12.9 2.92787 12.9436L4.05648 14.0722C4.10003 14.1163 4.15662 14.1451 4.21787 14.1545C4.27912 14.1638 4.34175 14.1532 4.39648 14.1241L5.85564 13.345C6.20082 13.5312 6.56493 13.68 6.94175 13.7889L7.41398 15.3802C7.43207 15.4388 7.46839 15.4901 7.51765 15.5266C7.56691 15.5632 7.62654 15.583 7.68787 15.5833H9.28398C9.3453 15.583 9.40493 15.5632 9.45419 15.5266C9.50345 15.4901 9.53977 15.4388 9.55787 15.3802L10.0301 13.7841C10.4037 13.6748 10.7646 13.526 11.1068 13.3402L12.5754 14.1241C12.6301 14.1532 12.6927 14.1638 12.754 14.1545C12.8152 14.1451 12.8718 14.1163 12.9154 14.0722L14.044 12.9436C14.088 12.9 14.1169 12.8434 14.1263 12.7822C14.1356 12.7209 14.125 12.6583 14.0959 12.6036L13.312 11.1397C13.4997 10.7962 13.6501 10.4337 13.7606 10.0583L15.352 9.58608C15.4106 9.56799 15.4619 9.53167 15.4984 9.4824C15.535 9.43314 15.5548 9.37351 15.5551 9.31219V7.70191C15.5579 7.64319 15.5426 7.58503 15.5114 7.53523C15.4802 7.48542 15.4344 7.44637 15.3804 7.4233V7.4233ZM8.50009 11.0972C7.98641 11.0972 7.48426 10.9449 7.05715 10.6595C6.63004 10.3741 6.29714 9.96846 6.10057 9.49388C5.90399 9.0193 5.85256 8.49709 5.95277 7.99328C6.05298 7.48947 6.30035 7.02669 6.66357 6.66346C7.0268 6.30023 7.48958 6.05287 7.99339 5.95265C8.49721 5.85244 9.01942 5.90387 9.494 6.10045C9.96858 6.29703 10.3742 6.62992 10.6596 7.05703C10.945 7.48414 11.0973 7.98629 11.0973 8.49997C11.0973 9.1888 10.8237 9.84941 10.3366 10.3365C9.84953 10.8236 9.18891 11.0972 8.50009 11.0972V11.0972Z" fill="white"/>
</svg>
