<svg width="17" height="17" viewBox="0 0 17 17" fill="none" xmlns="http://www.w3.org/2000/svg">
<path d="M9.79626 13.4583C9.69044 13.4587 9.58589 13.4353 9.49028 13.39C9.39467 13.3446 9.31043 13.2784 9.24376 13.1962L5.82251 8.94624C5.71833 8.8195 5.66138 8.66052 5.66138 8.49645C5.66138 8.33238 5.71833 8.1734 5.82251 8.04666L9.36418 3.79666C9.48441 3.65201 9.65718 3.56104 9.84449 3.54377C10.0318 3.5265 10.2183 3.58434 10.3629 3.70458C10.5076 3.82481 10.5986 3.99758 10.6158 4.18488C10.6331 4.37218 10.5752 4.55867 10.455 4.70333L7.28876 8.49999L10.3488 12.2967C10.4354 12.4006 10.4904 12.5272 10.5073 12.6615C10.5242 12.7958 10.5023 12.9321 10.4442 13.0543C10.3861 13.1765 10.2942 13.2795 10.1793 13.3511C10.0645 13.4227 9.93158 13.4599 9.79626 13.4583Z" fill="white"/>
</svg>
