<svg width="172" height="172" viewBox="0 0 172 172" fill="none" xmlns="http://www.w3.org/2000/svg">
<path d="M86 5.375C41.4735 5.375 5.375 41.4735 5.375 86L5.37769 86.1424L5.375 86.2849C5.375 130.655 41.2719 166.625 85.5566 166.625L85.7286 166.62L86 166.625C130.527 166.625 166.625 130.527 166.625 86C166.625 41.4735 130.527 5.375 86 5.375ZM161.25 86C161.25 92.4339 160.438 98.6769 158.923 104.635C158.221 104.151 156.367 106.151 155.91 103.501C155.338 100.212 151.629 97.9271 149.632 99.4993C147.635 101.071 141.93 105.643 141.647 108.502C141.36 111.359 138.933 114.789 137.796 112.364C136.651 109.935 133.233 102.359 133.373 100.359C133.512 98.3598 131.798 101.074 129.239 97.0725C126.67 93.0708 122.249 96.4974 118.683 94.4979C115.116 92.4957 111.123 89.7813 109.123 88.9267C107.132 88.0667 112.69 96.9274 113.404 95.7852C114.122 94.643 116.971 96.6425 117.828 96.6425C118.685 96.6425 120.964 98.642 119.54 100.502C118.116 102.361 105.423 110.085 104.138 108.075C102.848 106.065 95.2961 90.4962 94.0087 91.4502C92.7241 92.4043 101.999 108.645 103.568 109.645C105.132 110.647 109.844 109.79 112.123 108.79C114.407 107.79 107.417 119.938 104.425 121.367C101.432 122.795 99.0075 127.226 100.287 129.226C101.571 131.225 101.714 138.801 99.0075 139.804C96.2931 140.801 95.2961 142.373 96.1507 144.233C97.0026 146.087 94.1566 149.229 92.8719 151.231C91.5846 153.23 86.5966 157.375 86.1666 158.52C85.742 159.664 79.6091 159.377 77.1796 159.377C74.7582 159.377 76.6099 156.375 76.3223 153.806C76.0428 151.231 73.9036 148.801 73.9036 147.517C73.9036 146.23 73.186 143.228 72.1916 141.801C71.1946 140.368 70.9043 137.654 71.9041 136.084C72.9065 134.509 73.616 129.941 71.6246 127.938C69.6251 125.939 67.3407 122.507 68.9129 119.793C70.4824 117.078 67.2009 117.366 64.4919 116.076C61.7802 114.789 56.2171 116.506 53.3657 116.936C50.5116 117.363 47.6628 116.221 46.8055 114.789C45.9509 113.361 44.0965 109.79 42.1964 108.93C40.3018 108.075 41.3875 104.358 42.527 102.931C43.6719 101.504 41.3875 98.7871 42.527 97.6396C43.6719 96.4974 44.3814 92.3559 46.6631 91.4502C48.9474 90.5472 48.5174 89.9264 48.5873 87.7818C48.6599 85.6372 51.1539 85.6372 51.5785 84.495C52.0085 83.3501 53.2904 82.7804 55.8651 82.7804C58.4316 82.7804 62.7773 81.2781 64.8467 80.7782C66.9161 80.2783 70.4824 79.5634 70.1948 81.5656C69.9099 83.5651 69.9825 85.8495 71.3343 85.8495C72.6915 85.8495 74.5459 86.6369 76.6851 87.9699C78.8244 89.3003 78.8942 88.2118 79.1818 86.7095C79.4694 85.2072 82.4606 85.7796 85.5566 87.2094C88.6526 88.6391 92.8746 87.6367 94.2238 87.4969C95.5809 87.3491 96.1534 83.2802 95.7959 81.9231C95.4358 80.5659 93.2993 82.5654 91.9448 81.7081C90.5903 80.8534 88.7332 81.9231 87.3814 80.7056C86.0242 79.4936 85.8092 76.6341 87.3814 76.5642C88.9482 76.4916 89.7356 75.9918 90.6601 74.9221C91.59 73.8498 95.0837 73.2075 96.4382 74.2771C97.7901 75.3494 99.7923 76.0643 100.999 74.8496C102.211 73.6375 98.5802 71.2806 97.7901 70.6356C97.0053 69.9933 97.6476 67.9212 96.8656 67.9212C96.0781 67.9212 95.4358 68.2759 95.8658 69.2784C96.2931 70.2781 93.5841 72.0626 93.1514 71.0656C92.7268 70.0631 92.0146 68.1362 90.945 68.1362C89.8781 68.1362 88.451 72.9952 88.3784 73.7799C88.3059 74.5674 86.4515 75.852 84.9572 75.852C83.463 75.852 83.463 77.5693 84.2451 78.3568C85.0298 79.1415 84.4574 82.2859 83.033 82.4659C81.6059 82.6487 81.1061 82.1434 80.8938 80.926C80.6814 79.7139 79.2544 79.8564 79.1818 77.3543C79.1092 74.8523 77.5398 73.6402 76.5427 72.4953C75.5456 71.3504 72.9764 67.9937 71.9793 69.4961C70.9823 70.9984 75.5456 74.2126 76.755 75.0672C77.9724 75.9246 77.7574 77.7816 77.1151 78.2116C76.4728 78.6416 75.2608 82.1434 74.5486 82.4256C73.831 82.7105 73.1511 81.3614 73.1511 81.3614C72.0814 80.9341 74.6453 79.6467 75.0753 79.0044C75.4999 78.3621 70.5845 73.8606 69.6976 72.5732C68.8108 71.2859 65.0214 73.6429 63.3121 72.7882C61.6002 71.9336 59.0309 76.0025 58.8213 78.3594C58.6036 80.7191 55.8221 81.3587 53.2555 81.3587C50.6916 81.3587 48.977 79.4317 49.837 77.5021C50.6916 75.5725 49.407 72.3582 50.9066 72.1432C52.4036 71.9309 56.6767 72.1432 57.534 69.7863C58.3886 67.4294 53.4678 65.2847 55.3974 64.8574C57.319 64.4274 60.3182 61.4309 62.4575 59.7136C64.5914 57.9989 64.8064 55.857 66.7306 55.7065C68.6602 55.5587 66.306 51.9951 68.0179 50.9254C69.7326 49.8531 70.1572 54.7847 71.4418 54.7847C72.7264 54.7847 75.2876 54.3547 77.4296 55.427C79.5715 56.4993 80.2111 54.3547 81.0684 51.5651C81.9231 48.7808 84.0623 47.2785 88.3381 45.1366C92.6166 42.9919 83.4227 45.7789 81.7081 43.6343C79.9961 41.4896 82.3504 36.7731 83.4227 33.4433C84.4923 30.1108 79.9988 36.7731 77.6446 40.205C75.2876 43.6343 78.2869 45.1339 78.0692 47.4908C77.8569 49.8504 74.0111 52.6347 74.0111 52.6347C72.2991 52.8497 72.5114 49.4204 71.6568 47.9208C70.7995 46.4212 69.2999 47.0635 66.9456 48.7781C64.5914 50.4927 64.3791 44.7066 63.7394 42.3469C63.1025 39.9927 67.5906 36.9881 69.7003 35.3863C71.8073 33.7792 75.2876 26.058 79.1415 20.0595C82.9954 14.0583 88.5558 17.0576 90.0527 19.4172C91.5551 21.7714 95.3982 20.2718 99.0398 24.5611C102.679 28.8476 98.1824 30.7746 94.1243 29.0331C90.0527 27.2916 94.9763 33.3492 97.3251 35.0638C99.6794 36.7757 100.964 31.2046 101.821 29.9199C102.676 28.6326 105.882 29.2776 108.234 25.8457C110.591 22.4164 115.936 23.0614 118.989 23.4377C122.045 23.8166 121.284 21.5591 119.36 19.7128C117.936 18.3476 120.849 19.5435 124.278 21.2178C146.404 34.314 161.25 58.4182 161.25 86ZM53.8629 60.3935C53.1534 59.6598 54.5804 56.7708 55.2201 55.9134C55.8651 55.0561 53.4356 55.341 53.5834 56.5584C53.7258 57.7705 52.6535 59.6303 51.1566 60.1301C49.6596 60.63 47.9531 60.4849 48.805 59.1277C49.6569 57.7705 48.8749 56.5558 48.2326 55.2684C47.5929 53.9811 51.7962 53.1964 52.6562 52.4116C53.5108 51.6269 51.3044 51.1243 51.3716 49.9123C51.4441 48.6948 51.944 47.6252 52.7932 47.4827C53.6506 47.3403 54.4514 46.7921 55.2201 46.8404C57.577 46.9856 56.8567 52.3417 57.7167 54.0591C58.5714 55.771 60.9982 57.8457 60.7832 59.3427C60.5682 60.845 60.1113 61.7023 58.3644 61.2723C56.6095 60.8423 53.8011 63.4868 52.7261 62.9869C51.6537 62.4844 54.5804 61.1272 53.8629 60.3935V60.3935ZM38.4958 30.3446C40.6377 31.4142 42.3443 29.4738 43.8385 29.0573C45.6096 28.5681 46.6201 34.8461 44.9108 34.6311C43.1989 34.4161 41.2746 38.0604 38.8021 37.8454C36.3269 37.6304 37.4234 35.9184 34.6419 33.3465C34.0453 32.7929 33.8007 32.293 33.7792 31.8549C34.3731 31.2825 34.9644 30.7074 35.5798 30.1564C36.5419 29.9011 37.6841 29.9388 38.4958 30.3446V30.3446ZM105.42 138.223C107.417 137.796 107.032 133.996 108.844 133.795C112.695 133.367 108.986 144.082 107.562 147.084C106.135 150.086 105.56 149.941 104.202 148.084C102.84 146.23 103.281 143.225 104.202 141.798C105.122 140.365 103.42 138.653 105.42 138.223" fill="#b13967"/>
</svg>
