<svg width="120" height="107" viewBox="0 0 37 38" fill="none" xmlns="http://www.w3.org/2000/svg">
<path d="M5.67898 31.6849C5.2425 31.803 7.07631 30.8893 5.76454 30.6518C5.42172 30.5882 4.84995 30.8893 4.45509 30.4131C4.06312 29.9363 3.49483 30.3412 3.36475 30.7747C3.23351 31.2075 0.877654 31.2871 1.1829 31.5644C1.48758 31.8428 2.22989 33.313 2.53572 32.9953C2.84154 32.6776 3.16356 31.7639 3.46072 32.2009C3.75787 32.6379 3.84575 33.5516 2.79819 34.4262C1.7512 35.3008 3.32197 34.7837 3.10286 35.8168C2.88548 36.8499 3.97756 36.771 4.151 36.8107C4.32617 36.8499 5.32922 36.2538 5.50439 35.8578C5.67956 35.46 6.72539 32.6385 6.59473 32.3998C6.46465 32.1617 6.11431 31.5644 5.67898 31.6849V31.6849ZM26.2348 11.935C26.2348 11.935 25.4503 11.3389 25.2745 11.935C25.1005 12.5299 26.2782 12.6505 26.1487 13.1272C26.0174 13.604 24.838 13.6842 24.7941 12.8084C24.7519 11.935 24.3154 12.7294 24.3154 13.3653C24.3154 14.0018 22.9187 13.4455 23.3552 14.2001C23.7916 14.9548 22.614 15.8294 23.2684 15.9885C23.9235 16.1476 23.0499 19.1675 22.614 19.4851C22.1758 19.804 22.4822 20.3989 21.6965 20.6376C20.9103 20.8763 20.0812 22.6243 19.0354 22.9033C17.9873 23.1818 17.7248 23.6966 17.5953 23.1818C17.4629 22.6646 16.6772 22.7436 17.3768 22.3862C18.0746 22.0275 18.5544 21.3145 17.8121 21.4736C17.0704 21.6315 16.3726 22.3458 16.6333 22.7436C16.8969 23.1414 16.7692 23.8961 16.1777 24.2939C15.5857 24.6917 14.6711 25.2469 15.1065 25.6447C15.543 26.0425 14.9752 26.9159 14.452 26.5976C13.9277 26.28 13.405 25.4464 12.8807 25.843C12.3563 26.2396 10.9613 26.5585 10.2184 26.4391C9.47726 26.321 8.38461 25.9623 8.25511 26.4795C8.12387 26.9943 7.10001 28.1877 6.60687 28.307C6.11489 28.4264 5.75356 28.9032 5.19972 29.0213C4.79619 29.108 4.0215 29.4191 4.54412 29.8561C5.0679 30.2931 6.13686 29.2992 6.60629 29.8561C7.07689 30.4131 7.46944 28.9032 7.64287 29.26C7.81689 29.6186 9.03904 29.304 9.91259 29.0047C10.7861 28.7031 11.7013 28.0274 12.5754 28.2661C13.4484 28.5048 14.1456 28.7381 13.6658 29.0985C13.1854 29.4577 12.8362 30.2931 13.2287 30.4125C13.6218 30.5318 14.1896 31.4456 14.7133 31.2461C15.2371 31.0478 15.8916 29.2992 16.6767 29.3396C17.4617 29.3788 16.8963 28.5048 16.372 28.4258C15.8482 28.3456 17.0264 26.9147 17.3322 27.591C17.6369 28.2661 19.3395 28.7821 19.7315 28.544C20.1252 28.3065 20.605 27.3879 21.1733 27.4099C21.7393 27.4319 20.2998 29.0599 21.1733 28.6241C22.0451 28.1871 22.0012 26.6374 22.7007 27.1142C23.3991 27.591 23.5731 25.6833 23.6598 26.4789C23.7477 27.2721 23.1355 27.9086 23.6598 27.7091C24.1842 27.5108 25.4063 26.2004 25.1439 25.4048C24.8814 24.6104 24.708 23.3777 25.5376 22.9407C26.3666 22.5049 25.2745 19.4839 26.0608 19.4839C26.8459 19.4839 26.8459 19.8515 26.8904 18.9923C26.9337 18.1331 27.2396 17.7365 27.8495 17.0602C28.4612 16.384 26.8025 14.2387 26.5851 13.8813C26.366 13.5233 27.0638 12.3316 26.2348 11.935" fill="#b13967"/>
<path d="M11.7898 29.2511C11.4203 29.3205 10.6537 28.9334 10.3491 29.4494C10.0427 29.9665 9.65011 29.6584 9.43274 29.976C9.21363 30.2937 8.69043 29.3799 8.34008 29.976C7.99147 30.5722 7.11908 31.2075 7.59893 31.5649C8.07877 31.9235 7.42376 32.1622 7.81688 32.5589C8.21058 32.9567 8.9951 33.1158 9.12807 32.5589C9.25815 32.0031 9.78193 30.7628 10.393 31.0852C11.0041 31.4076 11.3082 31.5827 11.5273 31.2764C11.7464 30.97 12.1823 30.4926 12.4876 30.4136C12.7922 30.3329 12.6194 29.0908 11.7898 29.2511V29.2511ZM34.7465 7.00741C34.9645 6.80791 34.7899 6.37091 34.4401 6.05326C34.0915 5.7356 34.7465 4.90198 35.0523 4.38423C35.357 3.86826 33.8741 5.57648 33.3498 5.37816C32.826 5.17866 32.6063 4.94057 31.8218 4.86101C31.0367 4.78204 29.0722 2.79535 28.2871 1.68207C27.5009 0.569976 26.6713 1.6031 26.9777 2.15885C27.2823 2.71579 27.5442 3.58979 27.2823 4.18591C27.0199 4.78204 27.4147 5.21904 26.6707 5.45713C25.9295 5.69463 26.6707 6.09363 26.6707 6.93795C26.6707 7.78226 25.9729 7.56316 25.319 7.20454C24.6634 6.84829 24.6201 6.84829 24.4744 7.20454C24.3322 7.56316 24.8375 7.80185 24.4744 8.04054C24.1131 8.27804 23.4424 8.55651 23.1349 9.15263C22.8302 9.74876 23.3112 10.2647 23.8783 10.3841C24.4449 10.5034 23.1349 11.378 23.5725 11.9344C24.0084 12.4901 24.4888 11.6957 24.708 11.2189C24.9265 10.7421 25.4497 11.2979 25.7561 11.2189C26.0608 11.1399 25.8752 10.7896 25.4936 10.3841C25.3797 10.2635 25.1762 10.1763 24.7837 10.1163C24.39 10.0557 24.1397 9.83901 24.2501 9.51007C24.3588 9.18291 24.838 8.86526 25.1994 9.00419C25.5578 9.14313 25.5324 9.39369 25.5809 9.55044C25.7041 9.94351 26.1908 9.31176 26.8025 9.03329C27.4142 8.75482 28.1993 9.51007 28.8537 9.82891C29.5087 10.1466 30.469 10.6234 30.469 10.6234C30.8182 10.9808 30.469 9.98804 30.7303 9.55044C30.9922 9.11344 31.8218 7.68251 32.3016 7.96038C32.7821 8.23766 33.9175 8.35819 34.1349 7.99957C34.3534 7.64213 34.7465 7.7211 35.6189 7.16595C36.4907 6.6096 34.5274 7.20454 34.7465 7.00741" fill="#b13967"/>
</svg>
